<svg id="SvgjsSvg1001" width="288" height="288" xmlns="http://www.w3.org/2000/svg" version="1.1" xmlns:xlink="http://www.w3.org/1999/xlink" xmlns:svgjs="http://svgjs.com/svgjs"><defs id="SvgjsDefs1002"></defs><g id="SvgjsG1008" transform="matrix(1,0,0,1,0,0)"><svg xmlns="http://www.w3.org/2000/svg" width="288" height="288"><g transform="matrix(.59163 0 0 .59163 688.147 -287.093)" fill="#ffbf66" class="color000 svgShape"><path d="M-774.0625 772.3125l-45.125 28c17.35607 10.76752 34.70757 21.54313 52.0625 32.3125l22.75-17.90625-29.6875-42.40625zM-883.03125 839.90625L-1019.125 924.3125c-22.0798 13.69722-31.4132 49.5081-20.2812 65.40625 10.7842 15.40135 46.35872 18.57965 66.4687 4.6875.64871-.44813 1.2911-.92242 1.90625-1.40625L-829.75 881.875c-17.74216-14.00411-35.512-28.0054-53.28125-41.96875zM-728.6109 802.35195l6.95758-5.48215-27.87222-39.80566-7.53117 4.66299 28.44581 40.62482zM-705.89762 784.50233l30.74342-24.19723c-4.63901-2.18485-8.77931-5.56436-11.93402-10.06977l-6.7933-9.70183c-3.15472-4.5054-4.91436-9.55186-5.38081-14.65838l-33.25283 20.61343 26.61754 38.01378z" fill="#ffbf66" class="color000 svgShape"></path><rect width="165.714" height="88.571" x="843.311" y="-153.867" rx="57.952" ry="57.952" transform="rotate(145)" fill="#ffbf66" class="color000 svgShape"></rect><path d="M-617.9958 648.84894l-10.50361-15.00072-79.61138 55.74449 10.50362 15.00072 79.61137-55.74449zM-588.31196 713.68873c12.15146-8.50855 15.07004-25.06038 6.56143-37.21194l-6.7933-9.70183c-8.50861-12.15155-25.06045-15.07005-37.21192-6.5615l-58.51821 40.97489c-12.15156 8.50861-15.07009 25.06041-6.56148 37.21197l6.7933 9.70183c8.50861 12.15155 25.06041 15.07008 37.21196 6.56147l58.51822-40.97489zM-564.47514 725.28436l-10.50362-15.00072-79.61137 55.74449 10.50361 15.00072 79.61138-55.74449z" fill="#ffbf66" class="color000 svgShape"></path><rect width="165.714" height="88.571" x="844.134" y="-363.778" rx="57.952" ry="57.952" transform="rotate(145)" fill="#ffbf66" class="color000 svgShape"></rect><path d="M-728.58172 809.69431l-35.36457-50.50584-9.54824 6.68575 35.36457 50.50584 9.54824-6.68575zM-704.9543 793.15021l-35.36457-50.50584-9.54825 6.68575 35.36458 50.50584 9.54824-6.68575z" fill="#ffbf66" class="color000 svgShape"></path><g transform="translate(0 .282)" fill="#ffbf66" class="color000 svgShape"><path d="M-921.57536 802.06085l-6.95758-5.48215 27.87222-39.80566 7.53117 4.66299-28.44581 40.62482zM-944.28864 784.21123L-975.03206 760.014c4.63901-2.18485 8.77931-5.56436 11.93402-10.06977l6.7933-9.70183c3.15472-4.5054 4.91436-9.55186 5.38081-14.65838l33.25283 20.61343-26.61754 38.01378z" fill="#ffbf66" class="color000 svgShape"></path><rect width="165.714" height="88.571" x="-508.61" y="-1100.137" rx="57.952" ry="57.952" transform="scale(1 -1) rotate(-35)" fill="#ffbf66" class="color000 svgShape"></rect><path d="M-1032.1905 648.55784l10.5037-15.00072 79.61133 55.74449-10.50362 15.00072-79.61141-55.74449zM-1061.8743 713.39763c-12.1515-8.50855-15.07-25.06038-6.5614-37.21194l6.7933-9.70183c8.5086-12.15155 25.0604-15.07005 37.2119-6.5615l58.5182 40.97489c12.15156 8.50861 15.07009 25.06041 6.56148 37.21197l-6.7933 9.70183c-8.50861 12.15155-25.06041 15.07008-37.21198 6.56147l-58.5182-40.97489zM-1085.7111 724.99326l10.5036-15.00072 79.61137 55.74449-10.50357 15.00072-79.6114-55.74449z" fill="#ffbf66" class="color000 svgShape"></path><rect width="165.714" height="88.571" x="-507.786" y="-1310.048" rx="57.952" ry="57.952" transform="scale(1 -1) rotate(-35)" fill="#ffbf66" class="color000 svgShape"></rect><path d="M-921.60454 809.40321l35.36457-50.50584 9.54824 6.68575-35.36457 50.50584-9.54824-6.68575zM-945.23196 792.85911l35.36457-50.50584 9.54825 6.68575-35.36458 50.50584-9.54824-6.68575zM-677.24059 994.12796c-.64871-.44813-1.29449-.92961-1.90964-1.41344l-226.66944-178.2862 29.70051-42.41671 245.05973 152.02213c22.07982 13.69722 31.41425 49.49986 20.28225 65.39801-10.78414 15.40135-46.35343 18.58835-66.46341 4.69621z" fill="#ffbf66" class="color000 svgShape"></path></g></g></svg></g></svg>