<?xml version="1.0" encoding="UTF-8" standalone="no"?>
<svg
   version="1.0"
   width="38pt"
   height="38pt"
   viewBox="0 0 172.00016 172.00016"
   preserveAspectRatio="xMidYMid meet"
   id="svg211"
   sodipodi:docname="logo2.svg"
   inkscape:version="1.1 (c68e22c387, 2021-05-23)"
   xmlns:inkscape="http://www.inkscape.org/namespaces/inkscape"
   xmlns:sodipodi="http://sodipodi.sourceforge.net/DTD/sodipodi-0.dtd"
   xmlns="http://www.w3.org/2000/svg"
   xmlns:svg="http://www.w3.org/2000/svg">
  <defs
     id="defs215" />
  <sodipodi:namedview
     id="namedview213"
     pagecolor="#ffffff"
     bordercolor="#666666"
     borderopacity="1.0"
     inkscape:pageshadow="2"
     inkscape:pageopacity="0.0"
     inkscape:pagecheckerboard="0"
     inkscape:document-units="pt"
     showgrid="false"
     scale-x="4.52632"
     inkscape:zoom="17.230263"
     inkscape:cx="8.6765941"
     inkscape:cy="25.333333"
     inkscape:window-width="2560"
     inkscape:window-height="1377"
     inkscape:window-x="-8"
     inkscape:window-y="-8"
     inkscape:window-maximized="1"
     inkscape:current-layer="svg211" />
  <metadata
     id="metadata201">
Created by Docfx
</metadata>
  <g
     id="SvgjsG1008"
     transform="matrix(0.42597034,0,0,0.42597161,0.80721364,8.9639608)">
    <svg
       width="288"
       height="288"
       version="1.1"
       id="svg65">
      <g
         transform="matrix(0.59163,0,0,0.59163,688.147,-287.093)"
         fill="#ffbf66"
         class="color000 svgShape"
         id="g63">
        <path
           d="m -774.0625,772.3125 -45.125,28 c 17.35607,10.76752 34.70757,21.54313 52.0625,32.3125 l 22.75,-17.90625 z m -108.96875,67.59375 -136.09375,84.40625 c -22.0798,13.69722 -31.4132,49.5081 -20.2812,65.40625 10.7842,15.40135 46.35872,18.57965 66.4687,4.6875 0.64871,-0.44813 1.2911,-0.92242 1.90625,-1.40625 L -829.75,881.875 c -17.74216,-14.00411 -35.512,-28.0054 -53.28125,-41.96875 z m 154.42035,-37.5543 6.95758,-5.48215 -27.87222,-39.80566 -7.53117,4.66299 z m 22.71328,-17.84962 30.74342,-24.19723 c -4.63901,-2.18485 -8.77931,-5.56436 -11.93402,-10.06977 l -6.7933,-9.70183 c -3.15472,-4.5054 -4.91436,-9.55186 -5.38081,-14.65838 l -33.25283,20.61343 z"
           fill="#ffbf66"
           class="color000 svgShape"
           id="path41" />
        <rect
           width="165.714"
           height="88.570999"
           x="843.31097"
           y="-153.867"
           rx="57.952"
           ry="57.952"
           transform="rotate(145)"
           fill="#ffbf66"
           class="color000 svgShape"
           id="rect43" />
        <path
           d="m -617.9958,648.84894 -10.50361,-15.00072 -79.61138,55.74449 10.50362,15.00072 z m 29.68384,64.83979 c 12.15146,-8.50855 15.07004,-25.06038 6.56143,-37.21194 l -6.7933,-9.70183 c -8.50861,-12.15155 -25.06045,-15.07005 -37.21192,-6.5615 l -58.51821,40.97489 c -12.15156,8.50861 -15.07009,25.06041 -6.56148,37.21197 l 6.7933,9.70183 c 8.50861,12.15155 25.06041,15.07008 37.21196,6.56147 z m 23.83682,11.59563 -10.50362,-15.00072 -79.61137,55.74449 10.50361,15.00072 z"
           fill="#ffbf66"
           class="color000 svgShape"
           id="path45" />
        <rect
           width="165.714"
           height="88.570999"
           x="844.13397"
           y="-363.77802"
           rx="57.952"
           ry="57.952"
           transform="rotate(145)"
           fill="#ffbf66"
           class="color000 svgShape"
           id="rect47" />
        <path
           d="m -728.58172,809.69431 -35.36457,-50.50584 -9.54824,6.68575 35.36457,50.50584 z m 23.62742,-16.5441 -35.36457,-50.50584 -9.54825,6.68575 35.36458,50.50584 z"
           fill="#ffbf66"
           class="color000 svgShape"
           id="path49" />
        <g
           transform="translate(0,0.282)"
           fill="#ffbf66"
           class="color000 svgShape"
           id="g61">
          <path
             d="m -921.57536,802.06085 -6.95758,-5.48215 27.87222,-39.80566 7.53117,4.66299 z m -22.71328,-17.84962 -30.74342,-24.19723 c 4.63901,-2.18485 8.77931,-5.56436 11.93402,-10.06977 l 6.7933,-9.70183 c 3.15472,-4.5054 4.91436,-9.55186 5.38081,-14.65838 l 33.25283,20.61343 z"
             fill="#ffbf66"
             class="color000 svgShape"
             id="path51" />
          <rect
             width="165.714"
             height="88.570999"
             x="-508.60999"
             y="-1100.137"
             rx="57.952"
             ry="57.952"
             transform="matrix(0.81915204,0.57357644,0.57357644,-0.81915204,0,0)"
             fill="#ffbf66"
             class="color000 svgShape"
             id="rect53" />
          <path
             d="m -1032.1905,648.55784 10.5037,-15.00072 79.61133,55.74449 -10.50362,15.00072 z m -29.6838,64.83979 c -12.1515,-8.50855 -15.07,-25.06038 -6.5614,-37.21194 l 6.7933,-9.70183 c 8.5086,-12.15155 25.0604,-15.07005 37.2119,-6.5615 l 58.5182,40.97489 c 12.15156,8.50861 15.07009,25.06041 6.56148,37.21197 l -6.7933,9.70183 c -8.50861,12.15155 -25.06041,15.07008 -37.21198,6.56147 z m -23.8368,11.59563 10.5036,-15.00072 79.61137,55.74449 -10.50357,15.00072 z"
             fill="#ffbf66"
             class="color000 svgShape"
             id="path55" />
          <rect
             width="165.714"
             height="88.570999"
             x="-507.78601"
             y="-1310.048"
             rx="57.952"
             ry="57.952"
             transform="matrix(0.81915204,0.57357644,0.57357644,-0.81915204,0,0)"
             fill="#ffbf66"
             class="color000 svgShape"
             id="rect57" />
          <path
             d="m -921.60454,809.40321 35.36457,-50.50584 9.54824,6.68575 -35.36457,50.50584 z m -23.62742,-16.5441 35.36457,-50.50584 9.54825,6.68575 -35.36458,50.50584 z m 267.99137,201.26885 c -0.64871,-0.44813 -1.29449,-0.92961 -1.90964,-1.41344 l -226.66944,-178.2862 29.70051,-42.41671 245.05973,152.02213 c 22.07982,13.69722 31.41425,49.49986 20.28225,65.39801 -10.78414,15.40135 -46.35343,18.58835 -66.46341,4.69621 z"
             fill="#ffbf66"
             class="color000 svgShape"
             id="path59" />
        </g>
      </g>
    </svg>
  </g>
</svg>
